<svg xmlns="http://www.w3.org/2000/svg" viewBox="0 0 1050.55 358.79"><defs><style>.cls-1{fill:#ff8429;}</style></defs><title>Asset 1</title><g id="Layer_2" data-name="Layer 2"><g id="Layer_1-2" data-name="Layer 1"><path class="cls-1" d="M4.8,218.34A24.2,24.2,0,1,1,29,242.62,24.25,24.25,0,0,1,4.8,218.34M86.12,358.79a114.87,114.87,0,0,0,27-3.23C143.49,348.2,162.42,330,168.69,324c39.74-38.23,42.58-92.66,42.5-108.43-.21-45.05-14.63-81.19-42.86-107.39-29-26.88-62.61-33.1-80.1-34.42-.7,0-1.41-.07-2.11-.07h-58a28.15,28.15,0,0,0,0,56.3H85c10.38.92,29.16,4.71,45,19.45,24.66,22.9,24.82,55.64,24.87,66.4,0,7.2-1,44.29-25.3,67.64-4.24,4.08-14.17,13.64-29.72,17.41a58.25,58.25,0,0,1-13.75,1.64h-58a28.16,28.16,0,0,0,0,56.31h58M737.26,89.94h-149a25,25,0,0,0,0,50h49.58V324.58a24.9,24.9,0,1,0,49.8,0V139.92h49.58a25,25,0,0,0,0-50M971.44,190.6H911.31c-16.86,0-30.57-13-30.57-29s13.71-29,30.55-29h1.36c4.47,0,18.52.06,29.19.06a24.36,24.36,0,0,0,0-48.71c-10.62,0-24.58,0-29-.06h-1.5c-43.62,0-79.11,34.88-79.11,77.75s35.49,77.74,79.11,77.74h60.13c16.85,0,30.57,13,30.57,29s-13.72,29-30.55,29h-1.35c-4.46,0-18.52-.06-29.2-.06a24.36,24.36,0,0,0,0,48.71c10.62,0,24.6.05,29,.06h1.5c43.62,0,79.11-34.88,79.11-77.74s-35.49-77.74-79.11-77.74M862.07,295.89a27.4,27.4,0,1,1-27.3,27.4,27.34,27.34,0,0,1,27.3-27.4m157.75-158.32a27.4,27.4,0,1,1,27.31-27.4,27.35,27.35,0,0,1-27.31,27.4M417.4,143.93c-4.95,7.51-12.17,11.41-16.16,21.89-1.38,3.6-3,7.8-2.37,13.18,1.27,11.21,10.59,14.22,24.67,32.92,5.5,7.3,8.33,11.06,10.23,16.85,4.65,14.12.72,26.79-.5,30.54-5.18,15.85-19.24,32.38-40,35.73-21.74,3.51-37.73-9.54-40.65-12a51.11,51.11,0,0,1-15.8-54.53c2.19-7,5.3-11.66,8.51-16.37C358.06,193.43,369.6,191,371,179.06c.58-5-.77-8.95-2.71-13.26-5.21-11.62-11.77-15.13-16.29-22.21a105,105,0,0,0-72.43,99.91c0,58,46.84,105,104.63,105s104.63-47,104.63-105a105,105,0,0,0-71.42-99.57M385.13,59.71a29.86,29.86,0,1,1,29.75-29.86,29.8,29.8,0,0,1-29.75,29.86"/></g></g></svg>